<svg id="Layer_1" data-name="Layer 1" xmlns="http://www.w3.org/2000/svg" xmlns:xlink="http://www.w3.org/1999/xlink" viewBox="0 0 104.57 56.64"><defs><linearGradient id="linear-gradient" x1="35.39" y1="23.89" x2="91.73" y2="23.89" gradientUnits="userSpaceOnUse"><stop offset="0.35" stop-color="#fff"/><stop offset="1" stop-color="#b3b3b3"/></linearGradient><linearGradient id="linear-gradient-2" x1="29.62" y1="28.93" x2="62.92" y2="28.93" gradientUnits="userSpaceOnUse"><stop offset="0.13" stop-color="#04bfbf"/><stop offset="0.67" stop-color="aqua"/></linearGradient><linearGradient id="linear-gradient-3" x1="77.19" y1="25.75" x2="107.38" y2="25.75" gradientUnits="userSpaceOnUse"><stop offset="0.36" stop-color="#04c1c1"/><stop offset="1" stop-color="aqua"/></linearGradient><linearGradient id="linear-gradient-4" x1="2.82" y1="26.21" x2="35.81" y2="26.21" gradientUnits="userSpaceOnUse"><stop offset="0.57" stop-color="#fff"/><stop offset="1" stop-color="#b3b3b3"/></linearGradient><linearGradient id="linear-gradient-5" x1="85.3" y1="55.62" x2="91.19" y2="55.62" xlink:href="#linear-gradient"/><linearGradient id="linear-gradient-6" x1="49.76" y1="55.62" x2="55.52" y2="55.62" xlink:href="#linear-gradient"/></defs><path d="M91.22,43.89a32.68,32.68,0,0,1-3.47-5.25h-.1q-3.16,0-6.33,0a4.64,4.64,0,0,1-1.49-.23,3.75,3.75,0,0,1-2.45-3.82q.08-10.09.16-20.2c0-.84,0-.84.85-.84H80l0-.19c-.14-.16-.28-.34-.44-.49a11.81,11.81,0,0,1-2.81-3.93,21,21,0,0,0-1.17-2.06,1.26,1.26,0,0,0-1.2-.66q-2.07,0-4.14,0c-.56,0-.75.16-.75.73,0,2.39,0,4.78,0,7.18,0,.83,0,1.66,0,2.49a1,1,0,0,1-.48.66c-.14.07-.52-.12-.64-.29-.58-.81-1.07-1.67-1.64-2.47a18.17,18.17,0,0,0-2-2.53,28.72,28.72,0,0,0-3-2.33c-.56-.4-.64-.61-.28-1.19a2,2,0,0,0,.27-.66A4.79,4.79,0,0,0,61,4a3.82,3.82,0,0,0-3.41-2,19.42,19.42,0,0,0-2.84.31A49.84,49.84,0,0,0,43.58,5.86a23.16,23.16,0,0,0-7.73,5.07,1.24,1.24,0,0,0,.11,2,3.56,3.56,0,0,0,.78.46A4.63,4.63,0,0,1,39,15.53c.41.79.82,1.58,1.28,2.44l.41-.56A12.47,12.47,0,0,1,55.76,13a12,12,0,0,1,7.13,8.05,14.79,14.79,0,0,1,.1,8.16,14,14,0,0,1-2.05,4.39.93.93,0,0,0-.11.79c.67,1.38,1.4,2.73,2.11,4.1.37.7.7,1.42,1.11,2.1s.55.54,1,.12A20.36,20.36,0,0,0,68.86,36c.11-.2.24-.38.44-.69.08.33.12.48.14.63a11.25,11.25,0,0,0,10.39,9.71c3.67.16,7.35.09,11,.1a.88.88,0,0,0,.46-.24,1.67,1.67,0,0,0,.42-1.09C91.55,44.27,91.39,44.08,91.22,43.89Z" transform="translate(-2.82 -2)" fill="url(#linear-gradient)"/><path d="M59.7,35a1.44,1.44,0,0,0-.27.17,9.81,9.81,0,0,1-3.83,2.52c-4.51,1.38-8.71,1-12.32-1.8a12.61,12.61,0,0,1-4.77-8.54,12.17,12.17,0,0,1,.5-6.42,4.1,4.1,0,0,0-.47-4.17,2.29,2.29,0,0,1-.14-.27,4.73,4.73,0,0,0-2.52-2.51,3.07,3.07,0,0,1-1.62-1.74,2.26,2.26,0,0,1-.37.46,5.63,5.63,0,0,1-1.24.94,2.86,2.86,0,0,1-1.38.32l0,0a2,2,0,0,1-.26.93,6.25,6.25,0,0,1-1.4,3.47,6.71,6.71,0,0,1-.84,2.91,2.75,2.75,0,0,1-.36,1.69c0,1.65.23,3.25.35,4.56a14.35,14.35,0,0,0,2.82,7.59,24.66,24.66,0,0,1,2.83,4.24c.16-.26.33-.53.48-.8a19.74,19.74,0,0,0,13.67,7A21.34,21.34,0,0,0,63.46,41.8C61.78,39.71,61.27,37.05,59.7,35ZM30.21,24.79l-1.46-.69,1.55-.85C30.27,23.82,30.25,24.23,30.21,24.79Z" transform="translate(-2.82 -2)" fill="url(#linear-gradient-2)"/><path d="M107.37,7a.94.94,0,0,0-.94-.94H79.29c-.4,0-.8-.07-1.2-.1s-.51,0-.9,0c.47.89.92,1.64,1.27,2.42a10.91,10.91,0,0,0,2.73,3.66,4.86,4.86,0,0,1,.6.69,1.26,1.26,0,0,0,1.23.54,26.45,26.45,0,0,1,3.21,0c1.26.08,1.73,0,1.91.14s.12.66.1.74c-.14.74-.13,8,0,19.31a4.26,4.26,0,0,0,.08.8,16.89,16.89,0,0,0,1.07,3.31,37.93,37.93,0,0,0,2.27,3.71,12.56,12.56,0,0,0,5.2,4,36.39,36.39,0,0,0,5.58.29.41.41,0,0,0,.29-.08.64.64,0,0,0,.15-.51c0-2,0-3.93,0-5.9,0-.49-.21-.63-.66-.62a22.62,22.62,0,0,1-2.47,0,3.59,3.59,0,0,1-3.34-3.58c0-6.93,0-13.85,0-20.78,0-.57.16-.78.76-.77,3.16,0,6.33,0,9.49,0,.56,0,.75-.17.74-.73C107.36,10.71,107.37,8.86,107.37,7Z" transform="translate(-2.82 -2)" fill="url(#linear-gradient-3)"/><path d="M34.89,31.09a11,11,0,0,0-2.51-3.46,9.62,9.62,0,0,0-3.65-2.14,10,10,0,0,0,3.12-2,9.35,9.35,0,0,0,2.12-3,9,9,0,0,0,.78-3.7,10,10,0,0,0-1.36-5.3A9.7,9.7,0,0,0,29.76,8a10.14,10.14,0,0,0-5-1.26H2.82L4.7,13.19,24.2,13a4.52,4.52,0,0,1,2.4.65,4.91,4.91,0,0,1,1.7,1.69,4.76,4.76,0,0,1,0,4.77,4.94,4.94,0,0,1-1.7,1.73,4.51,4.51,0,0,1-2.4.64l-16.77.05h0l.9,3.07-1,3.61H7.4l0-.09,15.67.09a4.51,4.51,0,0,1,2.4.64,4.94,4.94,0,0,1,1.7,1.7,4.75,4.75,0,0,1,0,4.76,4.78,4.78,0,0,1-1.7,1.73,4.51,4.51,0,0,1-2.4.64H4.74v0h0L2.82,45.72H25.39a10.68,10.68,0,0,0,5.24-1.29,9.89,9.89,0,0,0,3.76-3.62,10.29,10.29,0,0,0,1.42-5.46A10,10,0,0,0,34.89,31.09Z" transform="translate(-2.82 -2)" fill="url(#linear-gradient-4)"/><path d="M56.94,58.5v-.67h2.61a1,1,0,0,0,.57-.14,1,1,0,0,0,.35-.37,1,1,0,0,0,.12-.47,1,1,0,0,0-.1-.44,1,1,0,0,0-.32-.33,1,1,0,0,0-.52-.13H58.48a2.19,2.19,0,0,1-.92-.18,1.28,1.28,0,0,1-.58-.52,1.42,1.42,0,0,1-.2-.78,1.47,1.47,0,0,1,.75-1.31,1.61,1.61,0,0,1,.84-.21h2.51v.66H58.44a.87.87,0,0,0-.66.26.81.81,0,0,0,0,1.15,1,1,0,0,0,.71.25h1.09a2.27,2.27,0,0,1,1,.19,1.39,1.39,0,0,1,.6.55,1.62,1.62,0,0,1,.2.81,1.67,1.67,0,0,1-.22.81,1.78,1.78,0,0,1-.59.63,1.61,1.61,0,0,1-.88.24Z" transform="translate(-2.82 -2)" fill="#fff"/><path d="M62.62,58.5v-.67h2.61a1,1,0,0,0,.56-.14,1,1,0,0,0,.36-.37,1,1,0,0,0,.12-.47.87.87,0,0,0-.11-.44.89.89,0,0,0-.31-.33,1,1,0,0,0-.52-.13H64.16a2.19,2.19,0,0,1-.92-.18,1.28,1.28,0,0,1-.58-.52,1.42,1.42,0,0,1-.21-.78,1.51,1.51,0,0,1,.76-1.31A1.57,1.57,0,0,1,64,53h2.52v.66H64.12a.85.85,0,0,0-.66.26.81.81,0,0,0,0,1.15.94.94,0,0,0,.71.25h1.09a2.27,2.27,0,0,1,1,.19,1.31,1.31,0,0,1,.59.55,1.52,1.52,0,0,1,.2.81,1.66,1.66,0,0,1-.21.81,1.81,1.81,0,0,1-.6.63,1.58,1.58,0,0,1-.87.24Z" transform="translate(-2.82 -2)" fill="#fff"/><path d="M71.23,58.5a3.71,3.71,0,0,1-1.59-.33,2.59,2.59,0,0,1-1.52-2.45,3.23,3.23,0,0,1,.33-1.46,2.6,2.6,0,0,1,.92-1,2.45,2.45,0,0,1,1.38-.39,2.54,2.54,0,0,1,1.39.36,2.38,2.38,0,0,1,.86,1,3.17,3.17,0,0,1,.29,1.37,2.09,2.09,0,0,1,0,.24c0,.08,0,.16,0,.22H68.93a1.75,1.75,0,0,0,.35,1,2,2,0,0,0,.82.62,3,3,0,0,0,1.09.2h1.4v.67Zm-2.3-3.06h3.59a2.8,2.8,0,0,0,0-.48,2.46,2.46,0,0,0-.15-.53A1.75,1.75,0,0,0,72,54a1.36,1.36,0,0,0-.51-.35,1.91,1.91,0,0,0-.76-.14,1.72,1.72,0,0,0-.75.17,1.7,1.7,0,0,0-.56.47,2.15,2.15,0,0,0-.49,1.34Z" transform="translate(-2.82 -2)" fill="#fff"/><path d="M74.53,58.5v-.67h2.61a1,1,0,0,0,.57-.14,1,1,0,0,0,.35-.37,1,1,0,0,0,.12-.47,1,1,0,0,0-.1-.44,1,1,0,0,0-.32-.33,1,1,0,0,0-.52-.13H76.07a2.11,2.11,0,0,1-.91-.18,1.25,1.25,0,0,1-.59-.52,1.42,1.42,0,0,1-.2-.78,1.47,1.47,0,0,1,.75-1.31A1.64,1.64,0,0,1,76,53h2.51v.66H76a.87.87,0,0,0-.66.26.81.81,0,0,0,0,1.15,1,1,0,0,0,.71.25h1.09a2.27,2.27,0,0,1,1,.19,1.39,1.39,0,0,1,.6.55,1.62,1.62,0,0,1,.2.81,1.67,1.67,0,0,1-.22.81,1.78,1.78,0,0,1-.59.63,1.61,1.61,0,0,1-.88.24Z" transform="translate(-2.82 -2)" fill="#fff"/><path d="M80.21,58.5v-.67h2.61a1,1,0,0,0,.56-.14.91.91,0,0,0,.36-.37,1,1,0,0,0,.12-.47.87.87,0,0,0-.11-.44.89.89,0,0,0-.31-.33,1,1,0,0,0-.52-.13H81.75a2.19,2.19,0,0,1-.92-.18,1.28,1.28,0,0,1-.58-.52,1.42,1.42,0,0,1-.21-.78,1.51,1.51,0,0,1,.76-1.31,1.6,1.6,0,0,1,.83-.21h2.52v.66H81.71a.87.87,0,0,0-.66.26.81.81,0,0,0,0,1.15,1,1,0,0,0,.71.25h1.09a2.27,2.27,0,0,1,1,.19,1.31,1.31,0,0,1,.59.55,1.53,1.53,0,0,1,.21.81,1.67,1.67,0,0,1-.22.81,1.78,1.78,0,0,1-.59.63,1.61,1.61,0,0,1-.88.24Z" transform="translate(-2.82 -2)" fill="#fff"/><path d="M88.78,58.52c0-.09.09-.18.14-.26a6.12,6.12,0,0,0,.36-.83,5.6,5.6,0,0,0,.31-1.06,4.71,4.71,0,0,0,.08-.5,4.83,4.83,0,0,0,0-.93,3.18,3.18,0,0,0-.16-1,1.51,1.51,0,0,0-.45-.68,1.34,1.34,0,0,0-.6-.26A2.17,2.17,0,0,0,88,53a1.21,1.21,0,0,0-.77.42,2,2,0,0,0-.36.8,4.46,4.46,0,0,0-.08,1.21,6.11,6.11,0,0,0,.2,1.27,7.56,7.56,0,0,0,.71,1.75v.05H85.78s0,0,0,0l-.27-.89c0-.19-.11-.38-.16-.56a0,0,0,0,0,0,0h.24l.15.47c0,.07,0,.14.07.22l0,0H87a.14.14,0,0,0,0-.14,5.58,5.58,0,0,1-.83-1.16,2.76,2.76,0,0,1-.31-.93,2.83,2.83,0,0,1,0-.65,2.26,2.26,0,0,1,.6-1.35,2.47,2.47,0,0,1,1.15-.69,2.55,2.55,0,0,1,.87-.08,2.33,2.33,0,0,1,.83.18,2.28,2.28,0,0,1,.83.57,2.25,2.25,0,0,1,.63,1.43,2.79,2.79,0,0,1-.33,1.55,6.07,6.07,0,0,1-.58.85,3.88,3.88,0,0,0-.26.31s0,.07,0,.11h1.18s0,0,0,0c.07-.23.15-.45.22-.68h.24l-.06.19c-.13.43-.26.85-.38,1.28,0,0,0,0,0,0H88.78Z" transform="translate(-2.82 -2)" fill="url(#linear-gradient-5)"/><path d="M92,58.5v-4A1.45,1.45,0,0,1,93.55,53h1v.66H93.7a1,1,0,0,0-.72.26,1.07,1.07,0,0,0-.25.74V58.5Z" transform="translate(-2.82 -2)" fill="#fff"/><path d="M95.87,52a.55.55,0,0,1-.38-.16.54.54,0,0,1-.17-.39.5.5,0,0,1,.17-.38.51.51,0,0,1,.38-.16.55.55,0,0,1,.54.54.55.55,0,0,1-.54.55Zm-.38,6.55V53h.76V58.5Z" transform="translate(-2.82 -2)" fill="#fff"/><path d="M100.29,58.64a2.57,2.57,0,0,1-1.43-.39,2.51,2.51,0,0,1-.91-1,3.38,3.38,0,0,1-.32-1.48A3.14,3.14,0,0,1,98,54.24a2.54,2.54,0,0,1,1-1,3.06,3.06,0,0,1,1.54-.38,2.84,2.84,0,0,1,1.49.38,2.57,2.57,0,0,1,1,1,3.13,3.13,0,0,1,.34,1.45V58.5h-.75V57.26h0a2.84,2.84,0,0,1-.46.64,2.31,2.31,0,0,1-.75.53A2.34,2.34,0,0,1,100.29,58.64Zm.17-.65a2,2,0,0,0,1.08-.3,2.15,2.15,0,0,0,.73-.82,2.46,2.46,0,0,0,.27-1.17,2.58,2.58,0,0,0-.25-1.14,2.11,2.11,0,0,0-.71-.8,2.22,2.22,0,0,0-2.21,0,2,2,0,0,0-.72.82,2.72,2.72,0,0,0-.25,1.17,2.62,2.62,0,0,0,.24,1.12,2,2,0,0,0,.7.81A2,2,0,0,0,100.46,58Z" transform="translate(-2.82 -2)" fill="#fff"/><path d="M55.49,58.5h-1.2c-.06,0-.09,0-.1-.08a12.92,12.92,0,0,1-.36-1.52.64.64,0,0,1,0-.07h0l0,.07a7.1,7.1,0,0,1-.61,1,1.67,1.67,0,0,1-.94.66,1.78,1.78,0,0,1-1.47-.2,1.8,1.8,0,0,1-.68-.88,4.24,4.24,0,0,1-.27-1.27,5.54,5.54,0,0,1,.15-1.77,2.67,2.67,0,0,1,.58-1.12,2,2,0,0,1,1.34-.67,2.46,2.46,0,0,1,.81,0,1.61,1.61,0,0,1,1.11.82,3.25,3.25,0,0,1,.32.74l0,.06,0-.06c.13-.46.26-.92.38-1.38,0-.06,0-.08.1-.08h.87a.59.59,0,0,1,0,.32,9.22,9.22,0,0,0-.57,1.28l-.44,1.14a.14.14,0,0,0,0,.09,20.79,20.79,0,0,0,.71,2.45s0,.09.09.09h0C55.53,58.23,55.53,58.24,55.49,58.5Zm-4.63-2.77a5.41,5.41,0,0,0,.08,1.06,2.16,2.16,0,0,0,.34.88.77.77,0,0,0,.54.35,1,1,0,0,0,.7-.21,2.17,2.17,0,0,0,.61-.77,9,9,0,0,0,.54-1.33.14.14,0,0,0,0-.09c-.05-.33-.1-.66-.17-1a3,3,0,0,0-.36-1,1.08,1.08,0,0,0-1.75-.16,2.2,2.2,0,0,0-.37.77A5.57,5.57,0,0,0,50.86,55.73Z" transform="translate(-2.82 -2)" fill="url(#linear-gradient-6)"/></svg>